<svg xmlns="http://www.w3.org/2000/svg" viewBox="0 0 512 512" width="100%" height="100%">
  <!-- Left wooden spindle roll -->
  <path d="M120 80v352c0 8.8-7.2 16-16 16s-16-7.2-16-16V80c0-8.8 7.2-16 16-16s16 7.2 16 16z" fill="#8D6E63" />
  <circle cx="104" cy="56" r="16" fill="#5D4037" />
  <circle cx="104" cy="456" r="16" fill="#5D4037" />
  
  <!-- Right wooden spindle roll -->
  <path d="M408 80v352c0 8.8-7.2 16-16 16s-16-7.2-16-16V80c0-8.8 7.2-16 16-16s16 7.2 16 16z" fill="#8D6E63" />
  <circle cx="392" cy="56" r="16" fill="#5D4037" />
  <circle cx="392" cy="456" r="16" fill="#5D4037" />

  <!-- The parchment paper -->
  <path d="M104 96h288v320H104z" fill="#FFF8E1" stroke="#D7CCC8" stroke-width="4" />
  
  <!-- Ribbon holding it in the center -->
  <path d="M224 240h64v32h-64z" fill="#FF5252" />
  <!-- Ribbon tails -->
  <path d="M232 272l-16 48h24l8-24 8 24h24l-16-48z" fill="#D32F2F" />

  <!-- Roll curls at the top and bottom -->
  <path d="M104 96c0-17.7 14.3-32 32-32h240c17.7 0 32 14.3 32 32s-14.3 32-32 32H136c-17.7 0-32-14.3-32-32z" fill="#FFE082" />
  <path d="M104 416c0-17.7 14.3-32 32-32h240c17.7 0 32 14.3 32 32s-14.3 32-32 32H136c-17.7 0-32-14.3-32-32z" fill="#FFE082" />
</svg>
